<?xml version="1.0" encoding="UTF-8"?>
<svg width="140px" height="252px" viewBox="0 0 140 252" version="1.1" xmlns="http://www.w3.org/2000/svg" xmlns:xlink="http://www.w3.org/1999/xlink">
    <title>B92BE78F-B7AE-4D3D-A13B-0A76E8A62320</title>
    <g id="MODULE" stroke="none" stroke-width="1" fill="none" fill-rule="evenodd">
        <g id="HKF_03_Icons_Bilder" transform="translate(-30.000000, -1281.000000)">
            <g id="Content" transform="translate(30.000000, 59.000000)">
                <g id="Logo" transform="translate(0.000000, 1100.000000)">
                    <g id="Logo_HKF_140" transform="translate(0.000000, 122.000000)">
                        <rect id="HG" fill="#FFFFFF" x="0" y="0" width="140" height="252"></rect>
                        <path d="M140,0 L140,252 L0,252 L0,0 L140,0 Z M138,2 L2,2 L2,250 L138,250 L138,2 Z" id="Outline" fill="#BBBCC0" fill-rule="nonzero"></path>
                        <path d="M29.3535015,135.7394 L29.3535015,127.006098 L35.4653145,127.006098 L35.4653145,124.075846 L29.3535015,124.075846 L29.3535015,118.617532 L35.7495849,118.617532 L35.7495849,115.68728 L25.7148407,115.68728 L25.7148407,135.7394 L29.3535015,135.7394 Z M48.826022,136.02668 C52.9479424,136.02668 56.7287384,132.924059 56.7287384,125.71334 C56.7287384,118.50262 52.9479424,115.4 48.826022,115.4 C44.7041016,115.4 40.9233057,118.50262 40.9233057,125.71334 C40.9233057,132.924059 44.7041016,136.02668 48.826022,136.02668 Z M48.826022,133.211339 C46.523432,133.211339 44.6756746,131.229109 44.6756746,125.71334 C44.6756746,120.19757 46.523432,118.215341 48.826022,118.215341 C51.128612,118.215341 52.9763695,120.19757 52.9763695,125.71334 C52.9763695,131.229109 51.128612,133.211339 48.826022,133.211339 Z M66.2517959,135.7394 L66.2517959,120.111386 L66.3086499,120.111386 L72.8752955,135.7394 L77.2246322,135.7394 L77.2246322,115.68728 L73.9270959,115.68728 L73.9270959,131.430205 L73.8702419,131.430205 L67.2751692,115.68728 L62.9542595,115.68728 L62.9542595,135.7394 L66.2517959,135.7394 Z M89.249269,135.7394 C94.7641142,135.7394 98.7438995,132.464412 98.7438995,125.71334 C98.7438995,119.07718 95.4463631,115.68728 89.249269,115.68728 L84.0755482,115.68728 L84.0755482,135.7394 L89.249269,135.7394 Z M88.9365716,132.924059 L87.714209,132.924059 L87.714209,118.50262 L88.9365716,118.50262 C93.030065,118.50262 94.8778224,121.317961 94.8778224,125.71334 C94.8778224,130.108719 93.030065,132.924059 88.9365716,132.924059 Z M109.062914,136.02668 C112.84371,136.02668 115.714841,134.073178 115.714841,129.993807 C115.714841,127.178466 114.606186,125.914436 112.275169,124.592949 L110.143141,123.386375 C109.034487,122.754359 108.039541,122.1798 108.039541,120.685946 C108.039541,119.307003 108.977633,118.330253 110.796963,118.330253 C112.474158,118.330253 113.639667,118.847356 114.520905,119.192092 L114.691467,116.118199 C114.122927,115.945831 112.644721,115.4 110.54112,115.4 C107.215157,115.4 104.287172,117.267318 104.287172,120.858314 C104.287172,123.443831 105.566388,125.023869 107.527854,126.115531 L109.375611,127.149738 C111.138088,128.126489 111.962472,128.758504 111.962472,130.194903 C111.962472,132.20586 110.54112,133.096427 108.949206,133.096427 C107.016167,133.096427 105.45268,132.320772 104.742004,131.861125 L104.543015,135.136113 C105.537961,135.7394 107.073021,136.02668 109.062914,136.02668 Z" id="FONDS" fill="#000000"></path>
                        <path d="M29.4246869,107.104413 L29.4246869,97.4972962 L29.5116365,97.4972962 L35.5981029,107.104413 L40.0904948,107.104413 L32.6708024,96.2964067 L39.5398145,86.66 L35.279288,86.66 L29.5116365,95.329837 L29.4246869,95.329837 L29.4246869,86.66 L25.7148407,86.66 L25.7148407,107.104413 L29.4246869,107.104413 Z M48.8941338,107.397313 C52.6909296,107.397313 55.763146,105.288434 55.763146,99.8990754 L55.763146,86.66 L52.0532998,86.66 L52.0532998,99.8990754 C52.0532998,103.296714 51.0099055,104.409734 48.8941338,104.409734 C46.7203958,104.409734 45.7059847,103.296714 45.7059847,99.8990754 L45.7059847,86.66 L41.9961385,86.66 L41.9961385,99.8990754 C41.9961385,105.288434 45.0683549,107.397313 48.8941338,107.397313 Z M69.899689,107.104413 L69.899689,104.116834 L63.233559,104.116834 L63.233559,86.66 L59.5237128,86.66 L59.5237128,107.104413 L69.899689,107.104413 Z M78.7178195,107.104413 L78.7178195,89.647579 L83.2102115,89.647579 L83.2102115,86.66 L70.4865982,86.66 L70.4865982,89.647579 L75.0079733,89.647579 L75.0079733,107.104413 L78.7178195,107.104413 Z M92.1442747,107.397313 C95.9410705,107.397313 99.0132869,105.288434 99.0132869,99.8990754 L99.0132869,86.66 L95.3034407,86.66 L95.3034407,99.8990754 C95.3034407,103.296714 94.2600464,104.409734 92.1442747,104.409734 C89.9705367,104.409734 88.9561256,103.296714 88.9561256,99.8990754 L88.9561256,86.66 L85.2462794,86.66 L85.2462794,99.8990754 C85.2462794,105.288434 88.3184958,107.397313 92.1442747,107.397313 Z M106.12141,107.104413 L106.12141,98.317416 L106.961922,98.317416 C108.324131,98.317416 109.280576,98.8446358 109.77329,100.455585 L111.773129,107.104413 L115.714841,107.104413 L113.077372,99.3132756 C112.439742,97.4094263 111.59923,97.0579464 110.845668,96.9407864 L110.845668,96.8529165 C113.106355,96.5014366 114.758396,94.7147472 114.758396,92.0493581 C114.758396,88.3002394 112.323809,86.66 108.729896,86.66 L102.411564,86.66 L102.411564,107.104413 L106.12141,107.104413 Z M107.628535,95.5641569 L106.12141,95.5641569 L106.12141,89.530419 L107.628535,89.530419 C109.715324,89.530419 110.932617,90.1162188 110.932617,92.459418 C110.932617,94.5390073 109.599391,95.5641569 107.628535,95.5641569 Z" id="KULTUR" fill="#A81F1F" fill-rule="nonzero"></path>
                        <path d="M29.3534619,49.0245902 L29.3534619,40.1885246 L35.2434398,40.1885246 L35.2434398,49.0245902 L38.8855517,49.0245902 L38.8855517,29 L35.2434398,29 L35.2434398,37.147541 L29.3534619,37.147541 L29.3534619,29 L25.71135,29 L25.71135,49.0245902 L29.3534619,49.0245902 Z M47.6493835,49.0245902 L49.0720835,44.204918 L55.9010433,44.204918 L57.2952893,49.0245902 L61.0512172,49.0245902 L54.6490673,29 L50.6655074,29 L44.0072716,49.0245902 L47.6493835,49.0245902 Z M55.1327853,41.3934426 L49.8403414,41.3934426 L52.5719254,32.0409836 L52.6288334,32.0409836 L55.1327853,41.3934426 Z M72.7742649,49.3114754 C76.5017389,49.3114754 79.5178628,47.2459016 79.5178628,41.9672131 L79.5178628,29 L75.8757509,29 L75.8757509,41.9672131 C75.8757509,45.295082 74.8514069,46.3852459 72.7742649,46.3852459 C70.640215,46.3852459 69.644325,45.295082 69.644325,41.9672131 L69.644325,29 L66.0022131,29 L66.0022131,41.9672131 C66.0022131,47.2459016 69.018337,49.3114754 72.7742649,49.3114754 Z M89.8751186,49.0245902 L89.8751186,41.192623 L91.9238065,41.192623 C96.0211824,41.192623 98.1552324,38.8688525 98.1552324,35.0819672 C98.1552324,31.295082 96.0211824,29 91.9238065,29 L86.2330066,29 L86.2330066,49.0245902 L89.8751186,49.0245902 Z M91.2409105,38.3811475 L89.8751186,38.3811475 L89.8751186,31.8114754 L91.2409105,31.8114754 C93.5172305,31.8114754 94.5131205,32.9016393 94.5131205,35.0819672 C94.5131205,37.2622951 93.5172305,38.3811475 91.2409105,38.3811475 Z M110.58963,49.0245902 L110.58963,31.9262295 L115,31.9262295 L115,29 L102.508694,29 L102.508694,31.9262295 L106.947518,31.9262295 L106.947518,49.0245902 L110.58963,49.0245902 Z M29.7802719,78 C33.5646538,78 36.4385077,76.0491803 36.4385077,71.9754098 C36.4385077,69.1639344 35.3288018,67.9016393 32.9955738,66.5819672 L30.8615239,65.3770492 C29.7518179,64.7459016 28.7559279,64.1721311 28.7559279,62.6803279 C28.7559279,61.3032787 29.6949099,60.3278689 31.5159659,60.3278689 C33.1947518,60.3278689 34.3613658,60.8442623 35.2434398,61.1885246 L35.4141638,58.1188525 C34.8450838,57.9467213 33.3654758,57.4016393 31.2598799,57.4016393 C27.9307619,57.4016393 25,59.2663934 25,62.852459 C25,65.4344262 26.28043,67.0122951 28.2437559,68.102459 L30.0932659,69.1352459 C31.8574138,70.1106557 32.6825798,70.7418033 32.6825798,72.1762295 C32.6825798,74.1844262 31.2598799,75.0737705 29.6664559,75.0737705 C27.7315839,75.0737705 26.166614,74.2991803 25.455264,73.8401639 L25.256086,77.1106557 C26.251976,77.7131148 27.7884919,78 29.7802719,78 Z M49.3566235,77.7131148 L49.3566235,60.6147541 L53.7669934,60.6147541 L53.7669934,57.6885246 L41.2756876,57.6885246 L41.2756876,60.6147541 L45.7145115,60.6147541 L45.7145115,77.7131148 L49.3566235,77.7131148 Z M61.0227632,77.7131148 L62.4454632,72.8934426 L69.274423,72.8934426 L70.668669,77.7131148 L74.4245969,77.7131148 L68.022447,57.6885246 L64.0388871,57.6885246 L57.3806513,77.7131148 L61.0227632,77.7131148 Z M68.506165,70.0819672 L63.2137212,70.0819672 L65.9453051,60.7295082 L66.0022131,60.7295082 L68.506165,70.0819672 Z M86.3325956,77.7131148 C91.8526715,77.7131148 95.8362314,74.442623 95.8362314,67.7008197 C95.8362314,61.0737705 92.5355675,57.6885246 86.3325956,57.6885246 L81.1539678,57.6885246 L81.1539678,77.7131148 L86.3325956,77.7131148 Z M86.0196016,74.9016393 L84.7960797,74.9016393 L84.7960797,60.5 L86.0196016,60.5 C90.1169776,60.5 91.9664875,63.3114754 91.9664875,67.7008197 C91.9664875,72.0901639 90.1169776,74.9016393 86.0196016,74.9016393 Z M110.44736,77.7131148 L110.44736,60.6147541 L114.85773,60.6147541 L114.85773,57.6885246 L102.366424,57.6885246 L102.366424,60.6147541 L106.805248,60.6147541 L106.805248,77.7131148 L110.44736,77.7131148 Z" id="HAUPTSTADT" fill="#000000"></path>
                    </g>
                </g>
            </g>
        </g>
    </g>
</svg>